<svg xmlns="http://www.w3.org/2000/svg" width="1252.408" height="157.477" viewBox="0 0 1252.408 157.477"><g transform="translate(-52.749 -45.047)"><g transform="translate(707.639 45.305)"><path d="M1047.675,116.281c-.193.024-.386.037-.579.061a84.915,84.915,0,0,0-16.226-44.331A68.789,68.789,0,0,0,1011.3,53.46c-7.615-5-16.387-7.675-26.338-8.223H833.94a54.492,54.492,0,0,0-27.66,7.153,72.623,72.623,0,0,0-20.913,18.694,85.473,85.473,0,0,0-13.156,25.184,93.235,93.235,0,0,0-3.951,21.452c-.182-.014-.363,0-.545-.011V123.8a88.855,88.855,0,0,0,16.806,51.844A68.772,68.772,0,0,0,804.087,194.2c7.617,5.005,16.387,7.677,26.339,8.223H981.449a54.517,54.517,0,0,0,27.661-7.153,72.615,72.615,0,0,0,20.912-18.694,85.378,85.378,0,0,0,13.156-25.186,92.006,92.006,0,0,0,4.391-26.323l.106-.005v-1.205l0-.027,0-.026Zm-42.33,35.995a37.366,37.366,0,0,1-12.313,11.032c-5.088,2.9-11.917,4.524-20.352,4.524H842.625c-8.151,0-14.756-1.627-20.127-4.524a37.017,37.017,0,0,1-12.451-11.032,35.924,35.924,0,0,1-6.1-14.125,68.466,68.466,0,0,1-1.654-14.322,70.007,70.007,0,0,1,1.568-14.321,40.85,40.85,0,0,1,6.183-14.124A37.355,37.355,0,0,1,822.357,84.35c5.088-2.9,11.919-4.525,20.352-4.525H972.765c8.151,0,14.756,1.628,20.127,4.525a37.008,37.008,0,0,1,12.451,11.033,35.891,35.891,0,0,1,6.1,14.124,68.659,68.659,0,0,1,1.653,14.324,69.977,69.977,0,0,1-1.568,14.319A40.842,40.842,0,0,1,1005.345,152.275Z" transform="translate(-450.157 -45.237)" fill="#1a1d21"/><path d="M766.668,141.156h1.44a47.519,47.519,0,0,0,18.93-3.788,50.682,50.682,0,0,0,15.51-10.277A47.353,47.353,0,0,0,813,111.945a48.306,48.306,0,0,0,0-37.5A47.4,47.4,0,0,0,802.548,59.3a50.763,50.763,0,0,0-15.51-10.28,47.679,47.679,0,0,0-18.93-3.781H551.551a17.243,17.243,0,0,0-17.312,17.306,17.247,17.247,0,0,0,17.312,17.312H709.706c16.613,0,73.549,9.733,73.549,13.34,0,3.849-58.282,13.344-73.549,13.344H578.439a43.182,43.182,0,0,0-17.31,3.425,42.018,42.018,0,0,0-13.7,9.375,45.07,45.07,0,0,0-9.193,14.06,43.537,43.537,0,0,0-3.425,17.132v34.614a17.234,17.234,0,0,0,17.31,17.309,16.857,16.857,0,0,0,12.078-5.049,16.407,16.407,0,0,0,5.227-12.26V154.5A13.1,13.1,0,0,1,580.6,141.156h71.758a148.684,148.684,0,0,1,37.5,4.683,197.486,197.486,0,0,1,34.806,12.623,274.1,274.1,0,0,1,32.268,18.029q15.5,10.1,30.3,20.915,6.118,5.058,12.259,5.049a17.241,17.241,0,0,0,17.3-17.309,14.194,14.194,0,0,0-2.885-8.835,33.208,33.208,0,0,0-6.848-6.67q-10.462-8.293-20.556-15.321t-19.833-13.163" transform="translate(-534.239 -45.237)" fill="#1a1d21"/></g><g transform="translate(381.494 45.081)"><path d="M567.419,186.057a17.307,17.307,0,1,0,0-34.614H340.247a11.786,11.786,0,0,1-8.113-2.708,8.174,8.174,0,0,1-3.066-6.307V124.756H559.485a17.34,17.34,0,0,0,12.262-29.567,16.721,16.721,0,0,0-12.262-5.047H317.527q-11.9,0-17.486,3.245t-5.591,12.981V138.82a46.171,46.171,0,0,0,3.966,19.473,50.165,50.165,0,0,0,10.1,14.783,44.8,44.8,0,0,0,14.064,9.558,39.694,39.694,0,0,0,15.865,3.423Z" transform="translate(-294.45 -28.841)" fill="#1a1d21"/><path d="M299.5,74.643a16.678,16.678,0,0,0,12.26,5.047h255.66a17.236,17.236,0,0,0,17.309-17.309,17.236,17.236,0,0,0-17.309-17.309H311.759A17.236,17.236,0,0,0,294.45,62.381,16.686,16.686,0,0,0,299.5,74.643" transform="translate(-294.45 -45.072)" fill="#1a1d21"/></g><path d="M300.36,106.805H87.329V60.737s0-15.69-15.685-15.69H68.433s-15.684,0-15.684,15.69v126.1s0,15.686,15.684,15.686h3.211s15.685,0,15.685-15.686V141.389H300.36v45.447s0,15.686,15.684,15.686h3.211s15.69,0,15.69-15.686V60.737s0-15.69-15.69-15.69h-3.211s-15.684,0-15.684,15.69Z" transform="translate(0 0)" fill="#1a1d21"/></g></svg>