<?xml version="1.0" encoding="utf-8"?>
<!-- Generator: Adobe Illustrator 24.1.2, SVG Export Plug-In . SVG Version: 6.00 Build 0)  -->
<svg version="1.1" id="Layer_1" xmlns="http://www.w3.org/2000/svg" xmlns:xlink="http://www.w3.org/1999/xlink" x="0px" y="0px"
	 viewBox="0 0 1053.6 76.2" style="enable-background:new 0 0 1053.6 76.2;" xml:space="preserve">
<style type="text/css">
	.st0{fill:#FFD200;}
</style>
<g id="Group_326" transform="translate(40.246 76.325)">
	<path id="Path_2344" class="st0" d="M-40.1-70.3c1.5-2.5,4.4-4.2,7.5-4.2h1.5c4,0.2,6.3,1.9,6.9,5c0.4,4.2,0.6,8.6,0.6,12.8V-46
		c10.9-0.2,27.4-0.2,49.5-0.2s38.5,0,49.5-0.2l0.4-12.5c0.2-6.1,0.2-9.8,0.4-10.9c0-1,0.4-1.9,1.2-2.7c1.7-1.7,4.2-2.5,6.7-2.3
		c1.9-0.2,3.8,0.4,5.2,1.5c1.5,1.7,2.5,4,2.5,6.3c0.2,2.9,0.4,12.7,0.4,29.2c0,16.7-0.2,26.7-0.4,29.5c0.2,2.1-0.8,4.2-2.5,5.8
		c-1.7,1-3.5,1.5-5.4,1.5c-2.3,0.2-4.4-0.6-6.1-2.1l-1.5-1.5L75.4-17L75-29.3l-49.5-0.2H-24v11.9c0,4-0.2,8.1-0.8,12.1
		C-25.1-4-26.5-2.6-28-2.1c-1.5,0.8-3.3,1-4.8,1c-1.5,0.2-3.1-0.2-4.4-1c-1.2-0.6-1.9-1.7-2.3-2.9c-0.6-1.9-0.8-9.8-0.8-23.4v-42
		H-40.1z"/>
	<path id="Path_2345" class="st0" d="M267.3-73.6c1.2-0.8,2.5-1.2,4-1.2c2.7,0,5.4,1.3,6.9,3.6c0.8,1.5,1.2,3.3,1.2,5
		c0.2,2.3,0.2,9,0.2,19.8c0,14.8,0.2,22.8,0.8,24.5c0.4,1.3,1.3,2.3,2.3,3.1l1.7,1.3h66.9c19.6,0,31.1,0.2,34.7,0.4
		c3.6,0.2,5.9,1,6.9,2.3l0.2,0.2c0,0,0.2,0.2,0,0.2c1.2,1.5,1.7,3.3,1.7,5.2c0.2,2.9-1.3,5.6-3.8,6.9l-1.9,1.2l-50.2,0.2
		c-34.5,0-52.7-0.2-54.7-0.4c-7.5-0.6-14.2-4.6-18-10.9c-1.3-2.1-2.3-4.6-2.7-7.1c-0.4-5-0.6-10.2-0.6-15.3v-10.9
		c0.2-11.7,0.2-18.8,0.4-21.1c0-1.5,0.2-3.1,1-4.4C265.2-71.9,266.2-72.8,267.3-73.6z"/>
	<path id="Path_2346" class="st0" d="M423.3-74.6c1.3-0.4,2.7-0.6,4-0.6c4.2,0,8.1,1.5,11.1,4.4c1.7,1.5,9,9.6,22.2,24.7
		c13,15,20.1,23,21.3,23.6c0.6,0.4,1.3,0.6,2.1,0.8c1.7-0.2,3.3-1,4.4-2.3c1.2-1.2,8.4-9.2,21.9-24.5c12.8-14.8,20.1-22.6,21.9-24
		c2.5-1.7,5.6-2.5,8.4-2.5c4.4-0.2,8.6,1.9,11.1,5.4c1.3,1.9,2.3,4,2.7,6.3c0.4,2.3,0.4,8.8,0.4,19.8v36.2l-1.2,1.7
		c-1.3,2.3-4,3.6-6.7,3.5h-0.8c-2.7,0-5.2-1.7-6.3-4.2c-0.8-1.2-1.2-9-1.3-23.8c0-14.8-0.2-22.2-0.4-22.8c0-0.2-0.2-0.4-0.2-0.4l0,0
		c-0.6,0-6.7,6.5-18.2,19.8c-2.1,2.3-3.6,4-4.6,5.4c-11.7,13-18.6,20.7-21.1,22.8c-2.5,2.1-5.8,3.3-9,3.1h-1.2
		c-3.1,0.2-6.3-0.6-8.8-2.5c-5.8-5.6-11.3-11.5-16.7-17.8c-18.2-20.7-27.4-31.1-28-31.1c-0.2,0-0.4,7.7-0.6,22.8
		c-0.2,11.1-0.2,17.6-0.4,19.9c0,1.5-0.4,3.1-1,4.6c-2.3,4-7.5,5.4-11.3,3.1c-1.2-0.6-1.9-1.5-2.7-2.5c-0.6-1.5-1-3.3-1-5
		c-0.2-2.7-0.2-10.9-0.2-24.7v-28l1.7-3.5C416.7-70.3,419.6-73.2,423.3-74.6z"/>
	<path id="Path_2347" class="st0" d="M743.7-75.1c8.4-0.2,28.4-0.4,60-0.4h28c6.1,0,10.9,0,14.4,0.2s5.6,0.2,6.1,0.4
		c0.6,0.2,1.2,0.4,1.5,0.8c2.3,1.5,3.6,4,3.6,6.7c0,2.7-1.3,5.4-3.6,6.9c-1.5,0.6-3.1,1-4.6,1c-2.5,0.2-10,0.2-22.8,0.4h-26.1
		l0.2,25.5v16.1c0,6.3-0.4,10-1,10.9c-1.3,2.5-3.8,3.8-6.7,3.8c-2.5,0-4.8-1-6.5-2.9L785-7.2l-0.4-26.1l-0.2-26.1h-26.3
		c-12.8,0-20.5,0-22.8-0.2c-1.5,0-3.1-0.2-4.6-1c-2.3-1.5-3.6-4-3.6-6.9c0-2.7,1.3-5.2,3.6-6.7C731.6-74.6,736.1-74.9,743.7-75.1z"
		/>
	<path id="Path_2348" class="st0" d="M894.1-74.6c1.7-0.4,20.1-0.8,55-0.8c25.9,0,41.2,0,45.8,0.2c2.9-0.2,5.8,0.2,8.6,1
		c2.9,1.2,4.8,4.2,4.6,7.5c0.2,2.9-1.5,5.8-4.2,6.9c-1.2,0.6-19.2,1-54.1,1H933c-18.4,0-29.3,0.2-33,0.4c-3.6,0.2-5.8,1-6.3,1.9
		c-0.2,0-0.2,0.2-0.2,0.4c-0.6,1-1,2.3-0.8,3.5c-0.2,1.2,0.2,2.3,0.8,3.3c0.8,1.2,2.1,1.9,3.5,1.9c2.7,0.6,13.6,0.8,32.6,0.8h15.2
		c31.6,0,48.3,0.2,50.2,0.6c10.5,1.9,18.2,11.1,18.4,21.9c0,1.3-0.2,2.5-0.4,3.8c-0.8,4.2-2.7,8.1-5.6,11.3
		c-2.9,3.1-6.5,5.2-10.5,6.1c-2.3,0.6-20.9,1-55.8,1h-15.5c-19.4,0-30.9-0.2-34.5-0.4c-3.6-0.2-5.9-1-6.9-2.3
		c-0.2-0.2-0.2-0.2-0.4-0.4c-1-1.3-1.5-3.1-1.5-4.6c-0.2-2.9,1.2-5.6,3.5-7.3c2.7-0.8,5.4-1.2,8.1-1c4.8-0.2,20.3-0.2,46.8-0.4
		c33.8-0.2,52-0.6,54.1-1.2c1.2-0.2,1.9-1,2.3-1.9c0.2-0.2,0.2-0.4,0.2-0.6c0.4-0.6,0.6-1.3,0.6-2.1c0-1.9-1-3.6-2.3-4.6l-1.9-1.7
		h-48.5c-32.6,0-49.9-0.4-52-1c-4.4-1.3-8.2-3.8-11.1-7.5c-2.9-3.5-4.4-7.7-4.6-12.3v-1.5c0-5,1.5-10,4.6-13.8
		C884.9-70.7,889.3-73.4,894.1-74.6z"/>
	<g id="Group_324" transform="translate(66 0.423)">
		<path id="Path_2349" class="st0" d="M164.5-46.4h-84c-4.4,0-8.2,3.5-8.2,8.1c0,4.4,3.5,8.2,8.1,8.2h0.2h84c4.4,0,8.2-3.5,8.2-8.1
			c0-4.4-3.5-8.2-8.1-8.2H164.5"/>
		<path id="Path_2350" class="st0" d="M171.6-58.8c4.4,0,8.2-3.5,8.2-8.1c0-4.4-3.5-8.2-8.1-8.2h-0.2H75c-4.6,0-9,1.2-13,3.5
			c-3.8,2.3-7.1,5.2-9.8,8.6c-2.7,3.6-4.8,7.5-6.1,11.9c-1.3,4.2-2.1,8.4-2.1,12.8s0.8,8.6,2.1,12.8c1.3,4.2,3.3,8.2,5.8,11.9
			c2.5,3.5,5.6,6.5,9.2,8.6c3.6,2.3,8.1,3.5,12.3,3.5h98.4c4.4,0,8.2-3.5,8.2-8.1c0-4.4-3.5-8.2-8.1-8.2h-0.2h-93
			c-3.3,0.2-6.5-0.6-9.6-2.1c-2.3-1.3-4.2-3.1-5.8-5.2c-1.3-1.9-2.3-4.2-2.9-6.7c-1-4.4-1-9,0-13.2c0.6-2.3,1.5-4.6,2.9-6.7
			c1.5-2.1,3.5-3.8,5.8-5.2c2.9-1.5,6.1-2.3,9.6-2.1L171.6-58.8z"/>
	</g>
	<g id="Group_325" transform="translate(270.785 0.423)">
		<path id="Path_2351" class="st0" d="M425.5-46.4h-84c-4.4,0-8.2,3.5-8.2,8.1c0,4.4,3.5,8.2,8.1,8.2h0.2h84c4.4,0,8.2-3.5,8.2-8.1
			c0-4.4-3.5-8.2-8.1-8.2C425.7-46.4,425.5-46.4,425.5-46.4"/>
		<path id="Path_2352" class="st0" d="M432.4-58.8c4.4,0,8.2-3.5,8.2-8.1c0-4.4-3.5-8.2-8.1-8.2h-0.2H336c-4.6,0-9,1.2-13,3.5
			c-3.8,2.3-7.1,5.2-9.8,8.6c-2.7,3.6-4.8,7.5-6.1,11.9c-1.3,4.2-2.1,8.4-2.1,12.8s0.8,8.6,2.1,12.8s3.3,8.2,5.8,11.9
			c2.5,3.5,5.6,6.5,9.2,8.6c3.6,2.3,8.1,3.5,12.3,3.5h98.4c4.4,0,8.2-3.5,8.2-8.1c0-4.4-3.5-8.2-8.1-8.2h-0.2h-93
			c-3.3,0.2-6.5-0.6-9.6-2.1c-2.3-1.3-4.2-3.1-5.8-5.2c-1.3-1.9-2.3-4.2-2.9-6.7c-1-4.4-1-9,0-13.2c0.6-2.3,1.5-4.6,2.9-6.7
			c1.5-2.1,3.5-3.8,5.8-5.2c2.9-1.5,6.1-2.3,9.6-2.1L432.4-58.8z"/>
	</g>
</g>
</svg>
