<?xml version="1.0" encoding="utf-8"?>
<!-- Generator: Adobe Illustrator 24.1.2, SVG Export Plug-In . SVG Version: 6.00 Build 0)  -->
<svg version="1.1" id="Layer_1" xmlns="http://www.w3.org/2000/svg" xmlns:xlink="http://www.w3.org/1999/xlink" x="0px" y="0px"
	 viewBox="0 0 548.6 116.2" style="enable-background:new 0 0 548.6 116.2;" xml:space="preserve">
<style type="text/css">
	.st0{fill:#FFD200;}
</style>
<g id="Group_672" transform="translate(184.351 264.259)">
	<path id="Path_16997" class="st0" d="M30.9-242.4c-3.7-5.2-8.4-9.6-13.8-13c-5.5-3.5-11.9-5.5-18.5-5.7h-135.8
		c-6.8-0.1-13.6,1.6-19.5,5c-5.7,3.4-10.7,7.8-14.6,13.1c-4.1,5.3-7.2,11.3-9.2,17.7c-2.1,6.2-3.1,12.7-3.1,19.3v43.1
		c0,6.7,5.5,12.1,12.2,12.1h0c3.2,0,6.3-1.2,8.6-3.5c2.3-2.2,3.6-5.3,3.5-8.5V-206c0-3.3,0.4-6.7,1.1-10c0.8-3.6,2.2-7,4.3-10
		c2.2-3.2,5.2-5.9,8.6-7.8c4.4-2.3,9.4-3.3,14.4-3.1h18.6c4.9-0.2,9.8,0.9,14.2,3.1c3.5,1.9,6.5,4.5,8.7,7.8c2.1,3,3.5,6.4,4.3,10
		c0.7,3.3,1.1,6.6,1.1,10v43.1c-0.1,3.2,1.2,6.3,3.5,8.5c2.3,2.3,5.4,3.6,8.6,3.5c6.7,0,12.1-5.3,12.2-12c0,0,0-0.1,0-0.1V-206
		c0-6.4-1.1-12.8-3.1-18.9c-1.3-4.1-3-8.1-5.2-11.9h58.1c4.9-0.1,9.8,0.9,14.2,3.1c3.5,1.9,6.4,4.5,8.7,7.8c2.1,3,3.6,6.4,4.3,10
		c0.7,3.3,1.1,6.6,1.1,10v43.1c0,3.2,1.2,6.3,3.5,8.5c4.7,4.8,12.4,4.8,17.2,0c2.3-2.3,3.6-5.4,3.6-8.6V-206c0-6.4-1.1-12.8-3-18.9
		C37.7-231.2,34.8-237.1,30.9-242.4z"/>
	<path id="Path_16998" class="st0" d="M80.7-261.4c-3.2,0-6.3,1.2-8.6,3.5c-2.3,2.3-3.6,5.4-3.5,8.6v86c-0.1,3.2,1.2,6.3,3.5,8.6
		c4.8,4.8,12.5,4.7,17.2,0c2.3-2.3,3.6-5.4,3.6-8.6v-86c0-3.2-1.3-6.3-3.6-8.6C87.1-260.2,84-261.4,80.7-261.4z"/>
	<path id="Path_16999" class="st0" d="M302.9-242.7c-3.7-5.2-8.4-9.6-13.8-13c-5.5-3.5-11.9-5.5-18.4-5.7h-106
		c-6.8-0.1-13.5,1.7-19.5,5.1c-5.7,3.3-10.7,7.8-14.6,13.1c-4.1,5.3-7.2,11.3-9.3,17.7c-2.1,6.2-3.1,12.8-3.2,19.3v43
		c-0.1,3.2,1.2,6.3,3.5,8.6c2.2,2.3,5.4,3.6,8.6,3.6c6.7,0,12.1-5.4,12.2-12.1c0,0,0-0.1,0-0.1v-43c0-3.4,0.4-6.7,1.1-10
		c0.8-3.6,2.2-6.9,4.3-9.9c2.3-3.2,5.2-5.8,8.7-7.7c4.4-2.3,9.3-3.4,14.2-3.1h91.4c4.9-0.2,9.8,0.9,14.2,3.1
		c3.4,1.9,6.4,4.5,8.7,7.7c2.1,3,3.5,6.4,4.3,9.9c0.7,3.3,1.1,6.7,1.1,10v43c-0.1,3.2,1.2,6.3,3.5,8.6c2.3,2.3,5.4,3.6,8.6,3.6
		c6.7,0,12.1-5.5,12.1-12.1v-43C314.6-219.3,310.5-232.1,302.9-242.7L302.9-242.7z"/>
	<path id="Path_17000" class="st0" d="M360.7-257.9c-2.3-2.3-5.4-3.6-8.6-3.5c-6.7,0-12.1,5.4-12.1,12.1c0,0,0,0.1,0,0.1v86
		c-0.1,3.2,1.2,6.3,3.5,8.6c2.2,2.3,5.3,3.6,8.6,3.6c3.2,0,6.4-1.2,8.6-3.6c2.3-2.3,3.6-5.4,3.5-8.6v-86
		C364.3-252.5,363-255.6,360.7-257.9z"/>
</g>
</svg>
